<mxfile host="app.diagrams.net" modified="2021-05-20T15:53:52.068Z" agent="5.0 (Windows NT 10.0; Win64; x64) AppleWebKit/537.36 (KHTML, like Gecko) Chrome/90.0.4430.212 Safari/537.36" etag="EvTPMVVNiaPRAWoLIg0L" version="14.6.3" type="github">
  <diagram name="Page-1" id="7a6c530e-6e37-e111-ec74-82921da8cc10">
    <mxGraphModel dx="2966" dy="2710" grid="1" gridSize="10" guides="1" tooltips="1" connect="1" arrows="1" fold="1" page="1" pageScale="1.5" pageWidth="1169" pageHeight="826" background="#184380" math="0" shadow="0">
      <root>
        <mxCell id="0" style=";html=1;" />
        <mxCell id="1" style=";html=1;" parent="0" />
        <mxCell id="23046e2b9bb16c14-116" value="" style="whiteSpace=wrap;html=1;rounded=1;shadow=0;strokeColor=none;strokeWidth=2;fillColor=#009BFF;fontSize=20;fontColor=#FFFFFF;align=center;arcSize=23;verticalAlign=top;spacingTop=4;" parent="1" vertex="1">
          <mxGeometry x="270" y="-780" width="1180" height="550" as="geometry" />
        </mxCell>
        <mxCell id="23046e2b9bb16c14-64" value="API Gateway" style="rounded=1;whiteSpace=wrap;html=1;shadow=0;strokeWidth=2;fillColor=#0072BC;fontSize=12;fontColor=#FFFFFF;align=center;strokeColor=none;arcSize=3;verticalAlign=top;" parent="1" vertex="1">
          <mxGeometry x="587" y="-730" width="150" height="420" as="geometry" />
        </mxCell>
        <mxCell id="23046e2b9bb16c14-28" value="API Group B" style="rounded=1;whiteSpace=wrap;html=1;shadow=0;strokeWidth=2;fillColor=#F04D22;fontSize=12;fontColor=#FFFFFF;align=center;strokeColor=none;arcSize=6;verticalAlign=top;" parent="1" vertex="1">
          <mxGeometry x="836" y="-500" width="230" height="244" as="geometry" />
        </mxCell>
        <mxCell id="vhC2tvjoHfnj0Zk7K-KK-2" value="" style="aspect=fixed;perimeter=ellipsePerimeter;html=1;align=center;shadow=0;dashed=0;spacingTop=3;image;image=img/lib/active_directory/laptop_client.svg;" vertex="1" parent="1">
          <mxGeometry x="390" y="-650" width="45" height="50" as="geometry" />
        </mxCell>
        <mxCell id="vhC2tvjoHfnj0Zk7K-KK-3" value="Mobile client" style="outlineConnect=0;fontColor=#232F3E;gradientColor=none;strokeColor=#232F3E;fillColor=#ffffff;dashed=0;verticalLabelPosition=bottom;verticalAlign=top;align=center;html=1;fontSize=12;fontStyle=0;aspect=fixed;shape=mxgraph.aws4.resourceIcon;resIcon=mxgraph.aws4.mobile_client;" vertex="1" parent="1">
          <mxGeometry x="383" y="-460" width="60" height="60" as="geometry" />
        </mxCell>
        <mxCell id="vhC2tvjoHfnj0Zk7K-KK-4" value="" style="aspect=fixed;pointerEvents=1;shadow=0;dashed=0;html=1;strokeColor=none;labelPosition=center;verticalLabelPosition=bottom;verticalAlign=top;align=center;fillColor=#00188D;shape=mxgraph.mscae.enterprise.workstation_client" vertex="1" parent="1">
          <mxGeometry x="388" y="-560" width="50" height="50" as="geometry" />
        </mxCell>
        <mxCell id="vhC2tvjoHfnj0Zk7K-KK-5" value="Availability Zone 1" style="points=[[0,0,0],[0.25,0,0],[0.5,0,0],[0.75,0,0],[1,0,0],[0,1,0],[0.25,1,0],[0.5,1,0],[0.75,1,0],[1,1,0],[0,0.25,0],[0,0.5,0],[0,0.75,0],[1,0.25,0],[1,0.5,0],[1,0.75,0]];outlineConnect=0;gradientColor=#F54749;gradientDirection=north;fillColor=#C7131F;dashed=0;verticalLabelPosition=bottom;verticalAlign=top;align=center;html=1;fontSize=12;fontStyle=0;aspect=fixed;shape=mxgraph.aws4.resourceIcon;resIcon=mxgraph.aws4.api_gateway;strokeColor=#FFFFFF;fontColor=#FFFFFF;" vertex="1" parent="1">
          <mxGeometry x="623" y="-664" width="77" height="77" as="geometry" />
        </mxCell>
        <mxCell id="vhC2tvjoHfnj0Zk7K-KK-6" value="Availability Zone 2" style="points=[[0,0,0],[0.25,0,0],[0.5,0,0],[0.75,0,0],[1,0,0],[0,1,0],[0.25,1,0],[0.5,1,0],[0.75,1,0],[1,1,0],[0,0.25,0],[0,0.5,0],[0,0.75,0],[1,0.25,0],[1,0.5,0],[1,0.75,0]];outlineConnect=0;gradientColor=#F54749;gradientDirection=north;fillColor=#C7131F;strokeColor=#ffffff;dashed=0;verticalLabelPosition=bottom;verticalAlign=top;align=center;html=1;fontSize=12;fontStyle=0;aspect=fixed;shape=mxgraph.aws4.resourceIcon;resIcon=mxgraph.aws4.api_gateway;fontColor=#FFFFFF;" vertex="1" parent="1">
          <mxGeometry x="623" y="-430" width="78" height="78" as="geometry" />
        </mxCell>
        <mxCell id="vhC2tvjoHfnj0Zk7K-KK-9" value="Service A" style="rounded=1;whiteSpace=wrap;html=1;" vertex="1" parent="1">
          <mxGeometry x="885" y="-460" width="120" height="60" as="geometry" />
        </mxCell>
        <mxCell id="vhC2tvjoHfnj0Zk7K-KK-10" value="" style="rounded=1;whiteSpace=wrap;html=1;" vertex="1" parent="1">
          <mxGeometry x="891" y="-360" width="120" height="60" as="geometry" />
        </mxCell>
        <mxCell id="vhC2tvjoHfnj0Zk7K-KK-11" value="Service B" style="text;html=1;align=center;verticalAlign=middle;resizable=0;points=[];autosize=1;strokeColor=none;" vertex="1" parent="1">
          <mxGeometry x="915" y="-340" width="70" height="20" as="geometry" />
        </mxCell>
        <mxCell id="vhC2tvjoHfnj0Zk7K-KK-15" value="API Group A" style="rounded=1;whiteSpace=wrap;html=1;shadow=0;strokeWidth=2;fillColor=#F04D22;fontSize=12;fontColor=#FFFFFF;align=center;arcSize=6;verticalAlign=top;" vertex="1" parent="1">
          <mxGeometry x="836" y="-747" width="230" height="244" as="geometry" />
        </mxCell>
        <mxCell id="vhC2tvjoHfnj0Zk7K-KK-16" value="Service A" style="rounded=1;whiteSpace=wrap;html=1;" vertex="1" parent="1">
          <mxGeometry x="885" y="-707" width="120" height="60" as="geometry" />
        </mxCell>
        <mxCell id="vhC2tvjoHfnj0Zk7K-KK-19" value="" style="aspect=fixed;html=1;points=[];align=center;image;fontSize=12;image=img/lib/mscae/Cache_including_Redis.svg;" vertex="1" parent="1">
          <mxGeometry x="1181" y="-592.25" width="144.5" height="144.5" as="geometry" />
        </mxCell>
        <mxCell id="vhC2tvjoHfnj0Zk7K-KK-35" value="" style="edgeStyle=none;rounded=0;orthogonalLoop=1;jettySize=auto;html=1;exitX=1;exitY=0.5;exitDx=0;exitDy=0;entryX=-0.028;entryY=0.5;entryDx=0;entryDy=0;entryPerimeter=0;startArrow=openThin;startFill=0;strokeColor=#FFFFFF;" edge="1" parent="1" source="vhC2tvjoHfnj0Zk7K-KK-28" target="vhC2tvjoHfnj0Zk7K-KK-19">
          <mxGeometry relative="1" as="geometry" />
        </mxCell>
        <mxCell id="vhC2tvjoHfnj0Zk7K-KK-28" value="" style="whiteSpace=wrap;html=1;dashed=0;fontStyle=0;verticalAlign=top;gradientDirection=north;" vertex="1" parent="1">
          <mxGeometry x="885" y="-707" width="120" height="60" as="geometry" />
        </mxCell>
        <mxCell id="vhC2tvjoHfnj0Zk7K-KK-29" value="" style="edgeStyle=none;rounded=0;orthogonalLoop=1;jettySize=auto;html=1;entryX=0;entryY=0.25;entryDx=0;entryDy=0;exitX=1;exitY=0.5;exitDx=0;exitDy=0;exitPerimeter=0;startArrow=openThin;startFill=0;strokeColor=#FFFFFF;" edge="1" parent="1" source="vhC2tvjoHfnj0Zk7K-KK-5" target="vhC2tvjoHfnj0Zk7K-KK-28">
          <mxGeometry relative="1" as="geometry" />
        </mxCell>
        <mxCell id="vhC2tvjoHfnj0Zk7K-KK-30" value="" style="whiteSpace=wrap;html=1;dashed=0;fontStyle=0;verticalAlign=top;gradientDirection=north;" vertex="1" parent="1">
          <mxGeometry x="880" y="-600" width="125" height="60" as="geometry" />
        </mxCell>
        <mxCell id="vhC2tvjoHfnj0Zk7K-KK-31" value="" style="edgeStyle=none;rounded=0;orthogonalLoop=1;jettySize=auto;html=1;entryX=0;entryY=0.5;entryDx=0;entryDy=0;exitX=1;exitY=0.5;exitDx=0;exitDy=0;exitPerimeter=0;startArrow=openThin;startFill=0;strokeColor=#FFFFFF;" edge="1" parent="1" source="vhC2tvjoHfnj0Zk7K-KK-5" target="vhC2tvjoHfnj0Zk7K-KK-30">
          <mxGeometry relative="1" as="geometry" />
        </mxCell>
        <mxCell id="vhC2tvjoHfnj0Zk7K-KK-18" value="Service B" style="text;html=1;align=center;verticalAlign=middle;resizable=0;points=[];autosize=1;strokeColor=none;" vertex="1" parent="1">
          <mxGeometry x="911" y="-684" width="70" height="20" as="geometry" />
        </mxCell>
        <mxCell id="vhC2tvjoHfnj0Zk7K-KK-33" value="Service B" style="text;html=1;align=center;verticalAlign=middle;resizable=0;points=[];autosize=1;strokeColor=none;" vertex="1" parent="1">
          <mxGeometry x="910" y="-580" width="70" height="20" as="geometry" />
        </mxCell>
        <mxCell id="vhC2tvjoHfnj0Zk7K-KK-36" value="" style="edgeStyle=none;rounded=0;orthogonalLoop=1;jettySize=auto;html=1;exitX=1;exitY=0.5;exitDx=0;exitDy=0;exitPerimeter=0;entryX=0;entryY=0.5;entryDx=0;entryDy=0;startArrow=openThin;startFill=0;strokeColor=#FFFFFF;" edge="1" parent="1" source="vhC2tvjoHfnj0Zk7K-KK-6" target="vhC2tvjoHfnj0Zk7K-KK-9">
          <mxGeometry relative="1" as="geometry" />
        </mxCell>
        <mxCell id="vhC2tvjoHfnj0Zk7K-KK-37" value="" style="edgeStyle=none;rounded=0;orthogonalLoop=1;jettySize=auto;html=1;exitX=1;exitY=0.5;exitDx=0;exitDy=0;exitPerimeter=0;entryX=0;entryY=0.5;entryDx=0;entryDy=0;startArrow=openThin;startFill=0;strokeColor=#FFFFFF;" edge="1" parent="1" source="vhC2tvjoHfnj0Zk7K-KK-6" target="vhC2tvjoHfnj0Zk7K-KK-10">
          <mxGeometry relative="1" as="geometry">
            <mxPoint x="710.9999999999998" y="-419.9999999999998" as="sourcePoint" />
            <mxPoint x="895" y="-420.0000000000002" as="targetPoint" />
          </mxGeometry>
        </mxCell>
        <mxCell id="vhC2tvjoHfnj0Zk7K-KK-38" value="" style="edgeStyle=none;rounded=0;orthogonalLoop=1;jettySize=auto;html=1;exitX=1;exitY=0.5;exitDx=0;exitDy=0;entryX=-0.028;entryY=0.507;entryDx=0;entryDy=0;entryPerimeter=0;startArrow=openThin;startFill=0;strokeColor=#FFFFFF;" edge="1" parent="1" source="vhC2tvjoHfnj0Zk7K-KK-10" target="vhC2tvjoHfnj0Zk7K-KK-19">
          <mxGeometry relative="1" as="geometry">
            <mxPoint x="720.9999999999998" y="-409.9999999999998" as="sourcePoint" />
            <mxPoint x="905" y="-410.0000000000002" as="targetPoint" />
          </mxGeometry>
        </mxCell>
        <mxCell id="vhC2tvjoHfnj0Zk7K-KK-39" value="" style="edgeStyle=none;rounded=0;orthogonalLoop=1;jettySize=auto;html=1;exitX=1;exitY=0.5;exitDx=0;exitDy=0;entryX=-0.036;entryY=0.546;entryDx=0;entryDy=0;entryPerimeter=0;startArrow=openThin;startFill=0;strokeColor=#FFFFFF;" edge="1" parent="1" source="vhC2tvjoHfnj0Zk7K-KK-30" target="vhC2tvjoHfnj0Zk7K-KK-19">
          <mxGeometry relative="1" as="geometry">
            <mxPoint x="730.9999999999998" y="-399.9999999999998" as="sourcePoint" />
            <mxPoint x="1130" y="-520" as="targetPoint" />
          </mxGeometry>
        </mxCell>
        <mxCell id="vhC2tvjoHfnj0Zk7K-KK-40" value="" style="edgeStyle=none;rounded=0;orthogonalLoop=1;jettySize=auto;html=1;exitX=1;exitY=0.5;exitDx=0;exitDy=0;exitPerimeter=0;startArrow=openThin;startFill=0;strokeColor=#FFFFFF;entryX=0;entryY=0.5;entryDx=0;entryDy=0;" edge="1" parent="1" source="vhC2tvjoHfnj0Zk7K-KK-4" target="23046e2b9bb16c14-64">
          <mxGeometry relative="1" as="geometry">
            <mxPoint x="710" y="-615.5" as="sourcePoint" />
            <mxPoint x="890" y="-560.0000000000002" as="targetPoint" />
          </mxGeometry>
        </mxCell>
        <mxCell id="vhC2tvjoHfnj0Zk7K-KK-41" value="" style="edgeStyle=none;rounded=0;orthogonalLoop=1;jettySize=auto;html=1;exitX=1.025;exitY=0.537;exitDx=0;exitDy=0;exitPerimeter=0;startArrow=openThin;startFill=0;strokeColor=#FFFFFF;" edge="1" parent="1" source="vhC2tvjoHfnj0Zk7K-KK-3">
          <mxGeometry relative="1" as="geometry">
            <mxPoint x="447.9999999999998" y="-525.0000000000002" as="sourcePoint" />
            <mxPoint x="590" y="-520" as="targetPoint" />
          </mxGeometry>
        </mxCell>
        <mxCell id="vhC2tvjoHfnj0Zk7K-KK-42" value="" style="edgeStyle=none;rounded=0;orthogonalLoop=1;jettySize=auto;html=1;exitX=1;exitY=0.75;exitDx=0;exitDy=0;startArrow=openThin;startFill=0;strokeColor=#FFFFFF;" edge="1" parent="1" source="vhC2tvjoHfnj0Zk7K-KK-2">
          <mxGeometry relative="1" as="geometry">
            <mxPoint x="457.9999999999998" y="-515.0000000000002" as="sourcePoint" />
            <mxPoint x="590" y="-520" as="targetPoint" />
          </mxGeometry>
        </mxCell>
        <mxCell id="vhC2tvjoHfnj0Zk7K-KK-43" value="Cache( Redis/Azure Cache) + Cosmos DB" style="text;html=1;align=center;verticalAlign=middle;resizable=0;points=[];autosize=1;fillColor=#ffffff;" vertex="1" parent="1">
          <mxGeometry x="1115" y="-620" width="240" height="20" as="geometry" />
        </mxCell>
      </root>
    </mxGraphModel>
  </diagram>
</mxfile>
